<svg width="132" height="132" viewBox="0 0 132 132" fill="none" xmlns="http://www.w3.org/2000/svg">
<path fill-rule="evenodd" clip-rule="evenodd" d="M3.09677 5.19355C4.25479 5.19355 5.19355 4.25479 5.19355 3.09677C5.19355 1.93876 4.25479 1 3.09677 1C1.93876 1 1 1.93876 1 3.09677C1 4.25479 1.93876 5.19355 3.09677 5.19355ZM78.5806 5.19355C79.7387 5.19355 80.6774 4.25479 80.6774 3.09677C80.6774 1.93876 79.7387 1 78.5806 1C77.4226 1 76.4839 1.93876 76.4839 3.09677C76.4839 4.25479 77.4226 5.19355 78.5806 5.19355ZM105.839 3.09677C105.839 4.25479 104.9 5.19355 103.742 5.19355C102.584 5.19355 101.645 4.25479 101.645 3.09677C101.645 1.93876 102.584 1 103.742 1C104.9 1 105.839 1.93876 105.839 3.09677ZM128.903 5.19355C130.061 5.19355 131 4.25479 131 3.09677C131 1.93876 130.061 1 128.903 1C127.745 1 126.806 1.93876 126.806 3.09677C126.806 4.25479 127.745 5.19355 128.903 5.19355ZM30.3548 3.09677C30.3548 4.25479 29.4161 5.19355 28.2581 5.19355C27.1 5.19355 26.1613 4.25479 26.1613 3.09677C26.1613 1.93876 27.1 1 28.2581 1C29.4161 1 30.3548 1.93876 30.3548 3.09677ZM53.4194 5.19355C54.5774 5.19355 55.5161 4.25479 55.5161 3.09677C55.5161 1.93876 54.5774 1 53.4194 1C52.2613 1 51.3226 1.93876 51.3226 3.09677C51.3226 4.25479 52.2613 5.19355 53.4194 5.19355ZM5.19355 28.2581C5.19355 29.4161 4.25479 30.3548 3.09677 30.3548C1.93876 30.3548 1 29.4161 1 28.2581C1 27.1 1.93876 26.1613 3.09677 26.1613C4.25479 26.1613 5.19355 27.1 5.19355 28.2581ZM78.5806 30.3548C79.7387 30.3548 80.6774 29.4161 80.6774 28.2581C80.6774 27.1 79.7387 26.1613 78.5806 26.1613C77.4226 26.1613 76.4839 27.1 76.4839 28.2581C76.4839 29.4161 77.4226 30.3548 78.5806 30.3548ZM105.839 28.2581C105.839 29.4161 104.9 30.3548 103.742 30.3548C102.584 30.3548 101.645 29.4161 101.645 28.2581C101.645 27.1 102.584 26.1613 103.742 26.1613C104.9 26.1613 105.839 27.1 105.839 28.2581ZM128.903 30.3548C130.061 30.3548 131 29.4161 131 28.2581C131 27.1 130.061 26.1613 128.903 26.1613C127.745 26.1613 126.806 27.1 126.806 28.2581C126.806 29.4161 127.745 30.3548 128.903 30.3548ZM5.19355 53.4194C5.19355 54.5774 4.25479 55.5161 3.09677 55.5161C1.93876 55.5161 1 54.5774 1 53.4194C1 52.2613 1.93876 51.3226 3.09677 51.3226C4.25479 51.3226 5.19355 52.2613 5.19355 53.4194ZM78.5806 55.5161C79.7387 55.5161 80.6774 54.5774 80.6774 53.4194C80.6774 52.2613 79.7387 51.3226 78.5806 51.3226C77.4226 51.3226 76.4839 52.2613 76.4839 53.4194C76.4839 54.5774 77.4226 55.5161 78.5806 55.5161ZM105.839 53.4194C105.839 54.5774 104.9 55.5161 103.742 55.5161C102.584 55.5161 101.645 54.5774 101.645 53.4194C101.645 52.2613 102.584 51.3226 103.742 51.3226C104.9 51.3226 105.839 52.2613 105.839 53.4194ZM128.903 55.5161C130.061 55.5161 131 54.5774 131 53.4194C131 52.2613 130.061 51.3226 128.903 51.3226C127.745 51.3226 126.806 52.2613 126.806 53.4194C126.806 54.5774 127.745 55.5161 128.903 55.5161ZM5.19355 78.5806C5.19355 79.7387 4.25479 80.6774 3.09677 80.6774C1.93876 80.6774 1 79.7387 1 78.5806C1 77.4226 1.93876 76.4839 3.09677 76.4839C4.25479 76.4839 5.19355 77.4226 5.19355 78.5806ZM3.09677 105.839C4.25479 105.839 5.19355 104.9 5.19355 103.742C5.19355 102.584 4.25479 101.645 3.09677 101.645C1.93876 101.645 1 102.584 1 103.742C1 104.9 1.93876 105.839 3.09677 105.839ZM5.19355 128.903C5.19355 130.061 4.25479 131 3.09677 131C1.93876 131 1 130.061 1 128.903C1 127.745 1.93876 126.806 3.09677 126.806C4.25479 126.806 5.19355 127.745 5.19355 128.903ZM78.5806 80.6774C79.7387 80.6774 80.6774 79.7387 80.6774 78.5806C80.6774 77.4226 79.7387 76.4839 78.5806 76.4839C77.4226 76.4839 76.4839 77.4226 76.4839 78.5806C76.4839 79.7387 77.4226 80.6774 78.5806 80.6774ZM105.839 78.5806C105.839 79.7387 104.9 80.6774 103.742 80.6774C102.584 80.6774 101.645 79.7387 101.645 78.5806C101.645 77.4226 102.584 76.4839 103.742 76.4839C104.9 76.4839 105.839 77.4226 105.839 78.5806ZM128.903 80.6774C130.061 80.6774 131 79.7387 131 78.5806C131 77.4226 130.061 76.4839 128.903 76.4839C127.745 76.4839 126.806 77.4226 126.806 78.5806C126.806 79.7387 127.745 80.6774 128.903 80.6774ZM80.6774 103.742C80.6774 104.9 79.7387 105.839 78.5806 105.839C77.4226 105.839 76.4839 104.9 76.4839 103.742C76.4839 102.584 77.4226 101.645 78.5806 101.645C79.7387 101.645 80.6774 102.584 80.6774 103.742ZM78.5806 131C79.7387 131 80.6774 130.061 80.6774 128.903C80.6774 127.745 79.7387 126.806 78.5806 126.806C77.4226 126.806 76.4839 127.745 76.4839 128.903C76.4839 130.061 77.4226 131 78.5806 131ZM105.839 103.742C105.839 104.9 104.9 105.839 103.742 105.839C102.584 105.839 101.645 104.9 101.645 103.742C101.645 102.584 102.584 101.645 103.742 101.645C104.9 101.645 105.839 102.584 105.839 103.742ZM103.742 131C104.9 131 105.839 130.061 105.839 128.903C105.839 127.745 104.9 126.806 103.742 126.806C102.584 126.806 101.645 127.745 101.645 128.903C101.645 130.061 102.584 131 103.742 131ZM131 103.742C131 104.9 130.061 105.839 128.903 105.839C127.745 105.839 126.806 104.9 126.806 103.742C126.806 102.584 127.745 101.645 128.903 101.645C130.061 101.645 131 102.584 131 103.742ZM128.903 131C130.061 131 131 130.061 131 128.903C131 127.745 130.061 126.806 128.903 126.806C127.745 126.806 126.806 127.745 126.806 128.903C126.806 130.061 127.745 131 128.903 131ZM30.3548 28.2581C30.3548 29.4161 29.4161 30.3548 28.2581 30.3548C27.1 30.3548 26.1613 29.4161 26.1613 28.2581C26.1613 27.1 27.1 26.1613 28.2581 26.1613C29.4161 26.1613 30.3548 27.1 30.3548 28.2581ZM28.2581 55.5161C29.4161 55.5161 30.3548 54.5774 30.3548 53.4194C30.3548 52.2613 29.4161 51.3226 28.2581 51.3226C27.1 51.3226 26.1613 52.2613 26.1613 53.4194C26.1613 54.5774 27.1 55.5161 28.2581 55.5161ZM30.3548 78.5806C30.3548 79.7387 29.4161 80.6774 28.2581 80.6774C27.1 80.6774 26.1613 79.7387 26.1613 78.5806C26.1613 77.4226 27.1 76.4839 28.2581 76.4839C29.4161 76.4839 30.3548 77.4226 30.3548 78.5806ZM28.2581 105.839C29.4161 105.839 30.3548 104.9 30.3548 103.742C30.3548 102.584 29.4161 101.645 28.2581 101.645C27.1 101.645 26.1613 102.584 26.1613 103.742C26.1613 104.9 27.1 105.839 28.2581 105.839ZM30.3548 128.903C30.3548 130.061 29.4161 131 28.2581 131C27.1 131 26.1613 130.061 26.1613 128.903C26.1613 127.745 27.1 126.806 28.2581 126.806C29.4161 126.806 30.3548 127.745 30.3548 128.903ZM53.4194 30.3548C54.5774 30.3548 55.5161 29.4161 55.5161 28.2581C55.5161 27.1 54.5774 26.1613 53.4194 26.1613C52.2613 26.1613 51.3226 27.1 51.3226 28.2581C51.3226 29.4161 52.2613 30.3548 53.4194 30.3548ZM55.5161 53.4194C55.5161 54.5774 54.5774 55.5161 53.4194 55.5161C52.2613 55.5161 51.3226 54.5774 51.3226 53.4194C51.3226 52.2613 52.2613 51.3226 53.4194 51.3226C54.5774 51.3226 55.5161 52.2613 55.5161 53.4194ZM53.4194 80.6774C54.5774 80.6774 55.5161 79.7387 55.5161 78.5806C55.5161 77.4226 54.5774 76.4839 53.4194 76.4839C52.2613 76.4839 51.3226 77.4226 51.3226 78.5806C51.3226 79.7387 52.2613 80.6774 53.4194 80.6774ZM55.5161 103.742C55.5161 104.9 54.5774 105.839 53.4194 105.839C52.2613 105.839 51.3226 104.9 51.3226 103.742C51.3226 102.584 52.2613 101.645 53.4194 101.645C54.5774 101.645 55.5161 102.584 55.5161 103.742ZM53.4194 131C54.5774 131 55.5161 130.061 55.5161 128.903C55.5161 127.745 54.5774 126.806 53.4194 126.806C52.2613 126.806 51.3226 127.745 51.3226 128.903C51.3226 130.061 52.2613 131 53.4194 131Z" fill="url(#paint0_linear_111_656)" stroke="#173041"/>
<defs>
<linearGradient id="paint0_linear_111_656" x1="1" y1="131.049" x2="141.148" y2="13.0537" gradientUnits="userSpaceOnUse">
<stop stop-color="white"/>
<stop offset="1" stop-color="white" stop-opacity="0"/>
</linearGradient>
</defs>
</svg>
