<svg width="257" height="257" viewBox="0 0 257 257" fill="none" xmlns="http://www.w3.org/2000/svg">
<path fill-rule="evenodd" clip-rule="evenodd" d="M6.08065 10.1613C8.33432 10.1613 10.1613 8.33432 10.1613 6.08065C10.1613 3.82697 8.33432 2 6.08065 2C3.82697 2 2 3.82697 2 6.08065C2 8.33432 3.82697 10.1613 6.08065 10.1613ZM152.984 10.1613C155.238 10.1613 157.065 8.33432 157.065 6.08065C157.065 3.82697 155.238 2 152.984 2C150.73 2 148.903 3.82697 148.903 6.08065C148.903 8.33432 150.73 10.1613 152.984 10.1613ZM206.032 6.08065C206.032 8.33432 204.205 10.1613 201.952 10.1613C199.698 10.1613 197.871 8.33432 197.871 6.08065C197.871 3.82697 199.698 2 201.952 2C204.205 2 206.032 3.82697 206.032 6.08065ZM250.919 10.1613C253.173 10.1613 255 8.33432 255 6.08065C255 3.82697 253.173 2 250.919 2C248.666 2 246.839 3.82697 246.839 6.08065C246.839 8.33432 248.666 10.1613 250.919 10.1613ZM59.129 6.08065C59.129 8.33432 57.3021 10.1613 55.0484 10.1613C52.7947 10.1613 50.9677 8.33432 50.9677 6.08065C50.9677 3.82697 52.7947 2 55.0484 2C57.3021 2 59.129 3.82697 59.129 6.08065ZM104.016 10.1613C106.27 10.1613 108.097 8.33432 108.097 6.08065C108.097 3.82697 106.27 2 104.016 2C101.762 2 99.9355 3.82697 99.9355 6.08065C99.9355 8.33432 101.762 10.1613 104.016 10.1613ZM10.1613 55.0484C10.1613 57.3021 8.33432 59.129 6.08065 59.129C3.82697 59.129 2 57.3021 2 55.0484C2 52.7947 3.82697 50.9677 6.08065 50.9677C8.33432 50.9677 10.1613 52.7947 10.1613 55.0484ZM152.984 59.129C155.238 59.129 157.065 57.3021 157.065 55.0484C157.065 52.7947 155.238 50.9677 152.984 50.9677C150.73 50.9677 148.903 52.7947 148.903 55.0484C148.903 57.3021 150.73 59.129 152.984 59.129ZM206.032 55.0484C206.032 57.3021 204.205 59.129 201.952 59.129C199.698 59.129 197.871 57.3021 197.871 55.0484C197.871 52.7947 199.698 50.9677 201.952 50.9677C204.205 50.9677 206.032 52.7947 206.032 55.0484ZM250.919 59.129C253.173 59.129 255 57.3021 255 55.0484C255 52.7947 253.173 50.9677 250.919 50.9677C248.666 50.9677 246.839 52.7947 246.839 55.0484C246.839 57.3021 248.666 59.129 250.919 59.129ZM10.1613 104.016C10.1613 106.27 8.33432 108.097 6.08065 108.097C3.82697 108.097 2 106.27 2 104.016C2 101.762 3.82697 99.9355 6.08065 99.9355C8.33432 99.9355 10.1613 101.762 10.1613 104.016ZM152.984 108.097C155.238 108.097 157.065 106.27 157.065 104.016C157.065 101.762 155.238 99.9355 152.984 99.9355C150.73 99.9355 148.903 101.762 148.903 104.016C148.903 106.27 150.73 108.097 152.984 108.097ZM206.032 104.016C206.032 106.27 204.205 108.097 201.952 108.097C199.698 108.097 197.871 106.27 197.871 104.016C197.871 101.762 199.698 99.9355 201.952 99.9355C204.205 99.9355 206.032 101.762 206.032 104.016ZM250.919 108.097C253.173 108.097 255 106.27 255 104.016C255 101.762 253.173 99.9355 250.919 99.9355C248.666 99.9355 246.839 101.762 246.839 104.016C246.839 106.27 248.666 108.097 250.919 108.097ZM10.1613 152.984C10.1613 155.238 8.33432 157.065 6.08065 157.065C3.82697 157.065 2 155.238 2 152.984C2 150.73 3.82697 148.903 6.08065 148.903C8.33432 148.903 10.1613 150.73 10.1613 152.984ZM6.08065 206.032C8.33432 206.032 10.1613 204.205 10.1613 201.952C10.1613 199.698 8.33432 197.871 6.08065 197.871C3.82697 197.871 2 199.698 2 201.952C2 204.205 3.82697 206.032 6.08065 206.032ZM10.1613 250.919C10.1613 253.173 8.33432 255 6.08065 255C3.82697 255 2 253.173 2 250.919C2 248.666 3.82697 246.839 6.08065 246.839C8.33432 246.839 10.1613 248.666 10.1613 250.919ZM152.984 157.065C155.238 157.065 157.065 155.238 157.065 152.984C157.065 150.73 155.238 148.903 152.984 148.903C150.73 148.903 148.903 150.73 148.903 152.984C148.903 155.238 150.73 157.065 152.984 157.065ZM206.032 152.984C206.032 155.238 204.205 157.065 201.952 157.065C199.698 157.065 197.871 155.238 197.871 152.984C197.871 150.73 199.698 148.903 201.952 148.903C204.205 148.903 206.032 150.73 206.032 152.984ZM250.919 157.065C253.173 157.065 255 155.238 255 152.984C255 150.73 253.173 148.903 250.919 148.903C248.666 148.903 246.839 150.73 246.839 152.984C246.839 155.238 248.666 157.065 250.919 157.065ZM157.065 201.952C157.065 204.205 155.238 206.032 152.984 206.032C150.73 206.032 148.903 204.205 148.903 201.952C148.903 199.698 150.73 197.871 152.984 197.871C155.238 197.871 157.065 199.698 157.065 201.952ZM152.984 255C155.238 255 157.065 253.173 157.065 250.919C157.065 248.666 155.238 246.839 152.984 246.839C150.73 246.839 148.903 248.666 148.903 250.919C148.903 253.173 150.73 255 152.984 255ZM206.032 201.952C206.032 204.205 204.205 206.032 201.952 206.032C199.698 206.032 197.871 204.205 197.871 201.952C197.871 199.698 199.698 197.871 201.952 197.871C204.205 197.871 206.032 199.698 206.032 201.952ZM201.952 255C204.205 255 206.032 253.173 206.032 250.919C206.032 248.666 204.205 246.839 201.952 246.839C199.698 246.839 197.871 248.666 197.871 250.919C197.871 253.173 199.698 255 201.952 255ZM255 201.952C255 204.205 253.173 206.032 250.919 206.032C248.666 206.032 246.839 204.205 246.839 201.952C246.839 199.698 248.666 197.871 250.919 197.871C253.173 197.871 255 199.698 255 201.952ZM250.919 255C253.173 255 255 253.173 255 250.919C255 248.666 253.173 246.839 250.919 246.839C248.666 246.839 246.839 248.666 246.839 250.919C246.839 253.173 248.666 255 250.919 255ZM59.129 55.0484C59.129 57.3021 57.3021 59.129 55.0484 59.129C52.7947 59.129 50.9677 57.3021 50.9677 55.0484C50.9677 52.7947 52.7947 50.9677 55.0484 50.9677C57.3021 50.9677 59.129 52.7947 59.129 55.0484ZM55.0484 108.097C57.3021 108.097 59.129 106.27 59.129 104.016C59.129 101.762 57.3021 99.9355 55.0484 99.9355C52.7947 99.9355 50.9677 101.762 50.9677 104.016C50.9677 106.27 52.7947 108.097 55.0484 108.097ZM59.129 152.984C59.129 155.238 57.3021 157.065 55.0484 157.065C52.7947 157.065 50.9677 155.238 50.9677 152.984C50.9677 150.73 52.7947 148.903 55.0484 148.903C57.3021 148.903 59.129 150.73 59.129 152.984ZM55.0484 206.032C57.3021 206.032 59.129 204.205 59.129 201.952C59.129 199.698 57.3021 197.871 55.0484 197.871C52.7947 197.871 50.9677 199.698 50.9677 201.952C50.9677 204.205 52.7947 206.032 55.0484 206.032ZM59.129 250.919C59.129 253.173 57.3021 255 55.0484 255C52.7947 255 50.9677 253.173 50.9677 250.919C50.9677 248.666 52.7947 246.839 55.0484 246.839C57.3021 246.839 59.129 248.666 59.129 250.919ZM104.016 59.129C106.27 59.129 108.097 57.3021 108.097 55.0484C108.097 52.7947 106.27 50.9677 104.016 50.9677C101.762 50.9677 99.9355 52.7947 99.9355 55.0484C99.9355 57.3021 101.762 59.129 104.016 59.129ZM108.097 104.016C108.097 106.27 106.27 108.097 104.016 108.097C101.762 108.097 99.9355 106.27 99.9355 104.016C99.9355 101.762 101.762 99.9355 104.016 99.9355C106.27 99.9355 108.097 101.762 108.097 104.016ZM104.016 157.065C106.27 157.065 108.097 155.238 108.097 152.984C108.097 150.73 106.27 148.903 104.016 148.903C101.762 148.903 99.9355 150.73 99.9355 152.984C99.9355 155.238 101.762 157.065 104.016 157.065ZM108.097 201.952C108.097 204.205 106.27 206.032 104.016 206.032C101.762 206.032 99.9355 204.205 99.9355 201.952C99.9355 199.698 101.762 197.871 104.016 197.871C106.27 197.871 108.097 199.698 108.097 201.952ZM104.016 255C106.27 255 108.097 253.173 108.097 250.919C108.097 248.666 106.27 246.839 104.016 246.839C101.762 246.839 99.9355 248.666 99.9355 250.919C99.9355 253.173 101.762 255 104.016 255Z" fill="url(#paint0_linear_43_47)" stroke="#173041" stroke-width="4"/>
<defs>
<linearGradient id="paint0_linear_43_47" x1="2" y1="255.095" x2="274.75" y2="25.4584" gradientUnits="userSpaceOnUse">
<stop stop-color="white"/>
<stop offset="1" stop-color="white" stop-opacity="0"/>
</linearGradient>
</defs>
</svg>
